<svg xmlns="http://www.w3.org/2000/svg" width="37" height="35.082"><path d="M27.7 0H9.3A9.3 9.3 0 0 0 0 9.3v16.48a9.3 9.3 0 0 0 9.3 9.302h18.4a9.3 9.3 0 0 0 9.3-9.3V9.3A9.3 9.3 0 0 0 27.7 0zm1.787 23.212a6.71 6.71 0 0 1-1.082 2.015c-.216.275-1.194 1.578-1.656 1.11-.165-.168.06-.824.097-1.026.372-2.03-.3-4.185-1.928-5.495a5.17 5.17 0 0 0-1.683-.908c-1.175-.37-2.437-.315-3.665-.256-.483.024-.966.048-1.45.07v2.442a1.07 1.07 0 0 1-1.654.898l-8.8-5.722a1.072 1.072 0 0 1 0-1.797l8.8-5.72c.186-.122.385-.177.58-.177.558 0 1.075.444 1.075 1.073v2.85c.927-.034 1.9-.073 2.807.053.49.068.995.043 1.49.118a8.75 8.75 0 0 1 4.653 2.227c1.118 1.04 1.946 2.398 2.4 3.854.437 1.414.48 2.98.014 4.392z" fill="#bfbfbf"/></svg>