<svg xmlns="http://www.w3.org/2000/svg" width="29.078" height="30"><path d="M21.37 0H7.71A7.71 7.71 0 0 0 0 7.71v14.58A7.71 7.71 0 0 0 7.71 30h13.66a7.71 7.71 0 0 0 7.708-7.71V7.71A7.71 7.71 0 0 0 21.368 0zM7.77 19.79H5.79V9.11h1.98v10.68zm15.32-.808c-.144.43-.363.836-.642 1.192-.127.164-.706.936-.98.658-.098-.1.036-.488.057-.61.22-1.202-.177-2.477-1.14-3.254a3.08 3.08 0 0 0-.998-.538c-.695-.22-1.44-.187-2.17-.15l-.858.04v1.448c0 .502-.56.806-.983.53l-5.212-3.388a.634.634 0 0 1 0-1.065l5.212-3.39a.637.637 0 0 1 .982.533v1.69c.547-.022 1.124-.045 1.66.03.29.04.59.026.883.07.303.046.6.117.89.216a5.14 5.14 0 0 1 1.866 1.104 5.272 5.272 0 0 1 1.42 2.282c.26.836.286 1.765.01 2.602z" fill="#e7e7e7"/></svg>