<svg xmlns="http://www.w3.org/2000/svg" width="29.078" height="30"><path d="M21.37 0H7.71A7.71 7.71 0 0 0 0 7.71v14.58A7.71 7.71 0 0 0 7.71 30h13.66a7.71 7.71 0 0 0 7.708-7.71V7.71A7.71 7.71 0 0 0 21.368 0zm-2.457 14.91L13.7 18.3a.634.634 0 0 1-.98-.53v-1.45l-.858-.04c-.73-.035-1.476-.067-2.17.15-.364.115-.702.302-.997.54-.965.776-1.36 2.05-1.14 3.254.02.12.153.51.056.61-.272.276-.853-.495-.98-.66a3.985 3.985 0 0 1-.64-1.19c-.277-.838-.252-1.767.01-2.604a5.29 5.29 0 0 1 1.422-2.282 5.178 5.178 0 0 1 2.757-1.32c.292-.044.59-.03.88-.07.537-.075 1.114-.052 1.663-.03v-1.69a.637.637 0 0 1 .98-.532l5.214 3.39a.638.638 0 0 1 0 1.065zm4.375 4.88h-1.98V9.11h1.98v10.68z" fill="#4a4a4a"/></svg>