<svg xmlns="http://www.w3.org/2000/svg" width="37" height="35.082"><path d="M27.7 0H9.3A9.3 9.3 0 0 0 0 9.3v16.48a9.3 9.3 0 0 0 9.3 9.302h18.4a9.3 9.3 0 0 0 9.3-9.3V9.3A9.3 9.3 0 0 0 27.7 0zm1.632 16.34l-8.8 5.72a1.07 1.07 0 0 1-1.655-.897V18.72c-.483-.02-.967-.045-1.447-.068-1.23-.06-2.492-.115-3.667.256a5.185 5.185 0 0 0-1.683.908c-1.627 1.31-2.3 3.464-1.928 5.496.038.202.264.858.098 1.026-.46.468-1.44-.835-1.654-1.11a6.644 6.644 0 0 1-1.082-2.015c-.467-1.412-.424-2.98.014-4.392a8.903 8.903 0 0 1 2.4-3.853 8.736 8.736 0 0 1 4.652-2.227c.494-.075 1-.05 1.49-.12.905-.125 1.88-.086 2.807-.05V9.717c0-.63.517-1.073 1.073-1.073.196 0 .396.055.582.176l8.8 5.723c.65.42.65 1.373 0 1.796z" fill="#e7e7e7"/></svg>