<svg xmlns="http://www.w3.org/2000/svg" width="577.914" height="45"><path d="M569.914 0H8a8 8 0 0 0-8 8v37h577.914V8a8 8 0 0 0-8-8z" fill="#262626"/><path d="M37.22 7.5H23.56a7.71 7.71 0 0 0-7.71 7.71v14.58a7.71 7.71 0 0 0 7.71 7.71h13.66a7.71 7.71 0 0 0 7.71-7.71V15.21a7.71 7.71 0 0 0-7.71-7.71zM23.622 27.29h-1.98V16.61h1.98v10.68zm15.318-.808c-.143.43-.362.836-.64 1.192-.128.164-.707.936-.98.658-.1-.1.035-.488.056-.61.22-1.202-.177-2.477-1.14-3.254a3.08 3.08 0 0 0-.998-.538c-.695-.22-1.44-.187-2.17-.15l-.858.04v1.448c0 .502-.56.806-.982.53l-5.212-3.388a.634.634 0 0 1 0-1.065l5.212-3.39a.637.637 0 0 1 .982.533v1.69c.548-.022 1.125-.045 1.662.03.29.04.59.026.882.07.303.046.6.117.89.216a5.14 5.14 0 0 1 1.866 1.104 5.272 5.272 0 0 1 1.422 2.282c.26.836.285 1.765.01 2.602zM75.842 4.96H57.444a9.3 9.3 0 0 0-9.3 9.3v16.48a9.3 9.3 0 0 0 9.3 9.3h18.398a9.3 9.3 0 0 0 9.3-9.3V14.26a9.3 9.3 0 0 0-9.3-9.3zm1.788 23.21a6.71 6.71 0 0 1-1.082 2.016c-.216.275-1.194 1.578-1.656 1.11-.164-.168.06-.824.098-1.026.372-2.032-.3-4.186-1.928-5.496a5.17 5.17 0 0 0-1.682-.908c-1.175-.37-2.437-.315-3.665-.256l-1.45.07v2.44a1.07 1.07 0 0 1-1.654.9l-8.8-5.723a1.072 1.072 0 0 1 0-1.797l8.8-5.722c.187-.12.386-.176.582-.176.557 0 1.074.444 1.074 1.073v2.85c.927-.034 1.9-.073 2.807.053.49.07.995.044 1.49.12a8.75 8.75 0 0 1 4.653 2.227c1.118 1.038 1.946 2.397 2.4 3.853.437 1.415.48 2.98.014 4.393zM223.203 7.5h-13.66a7.71 7.71 0 0 0-7.71 7.71v14.58a7.71 7.71 0 0 0 7.71 7.71h13.66a7.71 7.71 0 0 0 7.71-7.71V15.21a7.71 7.71 0 0 0-7.71-7.71zm-2.456 14.91l-5.213 3.39a.634.634 0 0 1-.98-.53v-1.45l-.858-.04c-.73-.035-1.476-.067-2.17.15-.364.115-.702.302-.997.54-.966.776-1.362 2.05-1.142 3.254.02.12.154.51.057.61-.273.276-.854-.495-.98-.66a3.985 3.985 0 0 1-.64-1.19c-.278-.838-.253-1.767.01-2.604a5.29 5.29 0 0 1 1.42-2.282 5.178 5.178 0 0 1 2.758-1.32c.293-.044.592-.03.88-.07.538-.075 1.115-.052 1.664-.03v-1.69a.637.637 0 0 1 .98-.532l5.214 3.39a.638.638 0 0 1 0 1.065zm4.375 4.88h-1.98V16.61h1.98v10.68zM189.32 4.96h-18.4a9.3 9.3 0 0 0-9.3 9.3v16.48a9.3 9.3 0 0 0 9.3 9.3h18.4a9.3 9.3 0 0 0 9.3-9.3V14.26a9.3 9.3 0 0 0-9.3-9.3zm1.632 16.338l-8.8 5.722a1.07 1.07 0 0 1-1.655-.898V23.68c-.483-.022-.967-.046-1.447-.07-1.23-.06-2.492-.114-3.667.257a5.185 5.185 0 0 0-1.683.908c-1.627 1.31-2.3 3.464-1.928 5.496.038.203.264.86.098 1.027-.46.468-1.44-.835-1.654-1.11a6.644 6.644 0 0 1-1.082-2.015c-.467-1.412-.424-2.98.014-4.392a8.903 8.903 0 0 1 2.4-3.854A8.736 8.736 0 0 1 176.2 17.7c.494-.076 1-.05 1.49-.12.905-.126 1.88-.087 2.807-.052v-2.85c0-.63.517-1.074 1.073-1.074.196 0 .396.055.582.176l8.8 5.722c.65.42.65 1.373 0 1.796z" fill="#e7e7e7"/><text transform="translate(97.612 26.558)" font-size="10.98" fill="#fff" font-family="Verdana">Page 1-2</text><path d="M270.35 20.616h-.416v-7.103c0-.56-.454-1.013-1.014-1.013h-12.8c-.56 0-1.015.454-1.015 1.013v7.103h-.417a3.66 3.66 0 0 0-3.66 3.66v4.564a3.66 3.66 0 0 0 3.66 3.66h15.662a3.66 3.66 0 0 0 3.66-3.66v-4.564a3.658 3.658 0 0 0-3.66-3.66m-13.758-1.942c0-.234.19-.426.425-.426h11.005c.234 0 .426.19.426.426v1.94h-11.855v-1.94zm15.252 10.166c0 .823-.67 1.493-1.493 1.493h-15.66c-.824 0-1.494-.67-1.494-1.493v-4.564c0-.824.67-1.494 1.493-1.494h15.66c.824 0 1.494.67 1.494 1.494v4.564z" fill="#e7e7e7"/><path d="M255.176 27.878v-2.642c0-.262.213-.474.476-.474h13.737c.26 0 .473.212.473.474v2.642a.475.475 0 0 1-.474.475H255.65a.476.476 0 0 1-.476-.475M302.658 32.5h-15.68a3.547 3.547 0 0 1-3.543-3.544V25.35a1.052 1.052 0 1 1 2.105 0v3.606a1.44 1.44 0 0 0 1.438 1.438h15.68a1.44 1.44 0 0 0 1.438-1.438V25.35a1.052 1.052 0 1 1 2.106 0v3.606a3.548 3.548 0 0 1-3.544 3.544" fill="#e7e7e7"/><path fill="#e7e7e7" d="M291.942 12.5v7.682h-2.748l5.624 7.978 5.625-7.978h-2.748V12.5zM337.42 29.742l-3.924-3.792a8.432 8.432 0 0 0-6.776-13.45 8.432 8.432 0 1 0 4.405 15.622l4.063 3.93a1.605 1.605 0 0 0 2.27-.04c.617-.64.6-1.654-.038-2.27m-10.7-2.328a6.482 6.482 0 1 1 6.483-6.482 6.482 6.482 0 0 1-6.482 6.482M360.808 12.5h-2.938c-.71 0-1.284.575-1.284 1.284v2.97c0 .708.575 1.283 1.284 1.283h2.938c.71 0 1.283-.575 1.283-1.284v-2.97c0-.707-.573-1.283-1.282-1.283M360.808 26.963h-2.938c-.71 0-1.284.575-1.284 1.284v2.97c0 .708.575 1.283 1.284 1.283h2.938c.71 0 1.283-.575 1.283-1.284v-2.97c0-.708-.573-1.283-1.282-1.283M360.808 19.732h-2.938c-.71 0-1.284.575-1.284 1.284v2.97c0 .708.575 1.283 1.284 1.283h2.938c.71 0 1.283-.576 1.283-1.285v-2.97c0-.708-.573-1.283-1.282-1.283M375.3 12.5h-2.937c-.71 0-1.283.575-1.283 1.284v2.97c0 .708.574 1.283 1.283 1.283h2.938c.71 0 1.285-.575 1.285-1.284v-2.97c0-.707-.575-1.283-1.284-1.283M375.3 26.963h-2.937c-.71 0-1.283.575-1.283 1.284v2.97c0 .708.574 1.283 1.283 1.283h2.938c.71 0 1.285-.575 1.285-1.284v-2.97c0-.708-.575-1.283-1.284-1.283M375.3 19.732h-2.937c-.71 0-1.283.575-1.283 1.284v2.97c0 .708.574 1.283 1.283 1.283h2.938c.71 0 1.285-.576 1.285-1.285v-2.97c0-.708-.575-1.283-1.284-1.283M368.054 12.5h-2.938c-.71 0-1.284.575-1.284 1.284v2.97c0 .708.575 1.283 1.284 1.283h2.938c.71 0 1.284-.575 1.284-1.284v-2.97c0-.707-.575-1.283-1.284-1.283M368.054 26.963h-2.938c-.71 0-1.284.575-1.284 1.284v2.97c0 .708.575 1.283 1.284 1.283h2.938c.71 0 1.284-.575 1.284-1.284v-2.97c0-.708-.575-1.283-1.284-1.283M368.054 19.732h-2.938c-.71 0-1.284.575-1.284 1.284v2.97c0 .708.575 1.283 1.284 1.283h2.938c.71 0 1.284-.576 1.284-1.285v-2.97c0-.708-.575-1.283-1.284-1.283M403.77 15.777l-3.324 3.325 1.713 1.713 3.324-3.325 3.276 1.998-.012-6.976-6.975-.012zM392.037 17.49l3.326 3.325 1.71-1.713-3.323-3.325 1.998-3.277-6.975.012-.013 6.976zM393.75 29.224l3.324-3.325-1.71-1.714-3.327 3.325-3.277-1.997.013 6.975 6.975.012zM405.484 27.51l-3.325-3.324-1.714 1.713 3.325 3.324-1.997 3.276 6.975-.012.012-6.975z"/></svg>