<svg xmlns="http://www.w3.org/2000/svg" width="19.999" height="20"><g fill="#bfbfbf"><path d="M4.222 0H1.284C.574 0 0 .575 0 1.284v2.97c0 .708.575 1.283 1.284 1.283h2.938c.71 0 1.283-.575 1.283-1.284v-2.97C5.505.577 4.93 0 4.222 0M4.222 14.463H1.284c-.71 0-1.284.575-1.284 1.284v2.97C0 19.424.575 20 1.284 20h2.938c.71 0 1.283-.575 1.283-1.284v-2.97c0-.708-.574-1.283-1.283-1.283M4.222 7.232H1.284C.574 7.232 0 7.807 0 8.516v2.97c0 .708.575 1.283 1.284 1.283h2.938c.71 0 1.283-.576 1.283-1.285v-2.97c0-.708-.574-1.283-1.283-1.283M18.715 0h-2.938c-.71 0-1.283.575-1.283 1.284v2.97c0 .708.574 1.283 1.283 1.283h2.938c.71 0 1.284-.575 1.284-1.284v-2.97C20 .577 19.423 0 18.714 0M18.715 14.463h-2.938c-.71 0-1.283.575-1.283 1.284v2.97c0 .708.574 1.283 1.283 1.283h2.938c.71 0 1.284-.575 1.284-1.284v-2.97c0-.708-.576-1.283-1.285-1.283M18.715 7.232h-2.938c-.71 0-1.283.575-1.283 1.284v2.97c0 .708.574 1.283 1.283 1.283h2.938c.71 0 1.284-.576 1.284-1.285v-2.97c0-.708-.576-1.283-1.285-1.283M11.468 0H8.53c-.71 0-1.284.575-1.284 1.284v2.97c0 .708.575 1.283 1.284 1.283h2.938c.71 0 1.284-.575 1.284-1.284v-2.97C12.752.577 12.177 0 11.468 0M11.468 14.463H8.53c-.71 0-1.284.575-1.284 1.284v2.97c0 .708.575 1.283 1.284 1.283h2.938c.71 0 1.284-.575 1.284-1.284v-2.97c0-.708-.575-1.283-1.284-1.283M11.468 7.232H8.53c-.71 0-1.284.575-1.284 1.284v2.97c0 .708.575 1.283 1.284 1.283h2.938c.71 0 1.284-.576 1.284-1.285v-2.97c0-.708-.575-1.283-1.284-1.283"/></g></svg>