<svg xmlns="http://www.w3.org/2000/svg" width="22.982" height="20"><path d="M19.323 8.116h-.417V1.013c0-.56-.454-1.013-1.014-1.013h-12.8c-.56 0-1.015.454-1.015 1.013v7.103H3.66A3.66 3.66 0 0 0 0 11.776v4.564A3.66 3.66 0 0 0 3.66 20h15.662a3.66 3.66 0 0 0 3.66-3.66v-4.564a3.658 3.658 0 0 0-3.66-3.66M5.565 6.174c0-.234.19-.426.425-.426h11.004c.234 0 .426.19.426.426v1.94H5.565v-1.94zM20.816 16.34c0 .823-.67 1.493-1.493 1.493H3.66c-.822 0-1.492-.67-1.492-1.493v-4.564c0-.824.67-1.494 1.493-1.494h15.663c.823 0 1.493.67 1.493 1.494v4.564z" fill="#bfbfbf"/></svg>